<?xml version="1.0" encoding="UTF-8"?>
<svg version="1.1" viewBox="0 0 2000 575" xmlns="http://www.w3.org/2000/svg">
<g transform="translate(-1.2121 .76624)">
<svg width="2e3" height="575" data-background-color="#ffffff" viewBox="0 0 396 114" xmlns="http://www.w3.org/2000/svg" xmlns:xlink="http://www.w3.org/1999/xlink">
<g transform="translate(.24 -.15191)">
<svg width="395.52" height="114.3" viewBox="0 0 395.52 114.30382891956006">
<svg width="395.52" height="114.3" viewBox="0 0 397.4975999999999 114.87534806415785">
<rect class="rect-o-0" y="79.66" width="397.5" height="2.3945" rx="1%" fill="#111" stroke="transparent" stroke-width="0" data-fill-palette-color="secondary" data-palette-color="#111111"/>
<g transform="translate(.9888 88.323)">
<svg width="395.52" height="26.553" viewBox="0 0 395.52 26.552590199246094">
<svg width="395.52" height="26.553" viewBox="0 0 395.52 26.552590199246094">
<svg width="395.52" height="26.553" viewBox="0 0 395.52 26.552590199246094">
<g>
<svg width="395.52" height="26.553" data-palette-color="#111111" viewBox="2.9100000858306885 -36.040000915527344 543.9900512695312 36.53000259399414">
<path class="undefined-text-0" d="m25.56-11.28h4.71q-0.66 5.64-4.16 8.7-3.5 3.07-9.31 3.07-6.3 0-10.1-4.52-3.79-4.51-3.79-12.08v-3.42q0-4.96 1.77-8.72t5.01-5.77q3.25-2.02 7.52-2.02 5.67 0 9.08 3.17 3.42 3.16 3.98 8.75h-4.71q-0.61-4.25-2.65-6.15-2.04-1.91-5.7-1.91-4.49 0-7.04 3.32t-2.55 9.45v3.44q0 5.79 2.41 9.21 2.42 3.42 6.77 3.42 3.9 0 5.99-1.77t2.77-6.17zm38.45-7.59v2.24q0 5.23-1.76 9.12-1.75 3.9-4.98 5.95-3.22 2.05-7.52 2.05-4.2 0-7.44-2.06-3.25-2.07-5.04-5.89-1.8-3.82-1.85-8.85v-2.56q0-5.13 1.78-9.06 1.79-3.93 5.05-6.02t7.45-2.09q4.28 0 7.54 2.07 3.26 2.06 5.01 5.98 1.76 3.92 1.76 9.12zm-4.66 2.59v-2.64q0-6.32-2.54-9.71-2.54-3.38-7.11-3.38-4.44 0-6.99 3.38-2.55 3.39-2.62 9.39v2.61q0 6.13 2.57 9.64 2.58 3.5 7.09 3.5 4.54 0 7.03-3.31t2.57-9.48zm39.01-19.27v35.55h-4.71l-17.9-27.39v27.39h-4.71v-35.55h4.71l17.95 27.52v-27.52h4.66zm32.17 0v3.86h-11.42v31.69h-4.66v-31.69h-11.41v-3.86h27.49zm26.03 35.55-7.72-14.38h-8.35v14.38h-4.71v-35.55h11.77q6 0 9.24 2.74 3.23 2.73 3.23 7.96 0 3.32-1.79 5.78-1.79 2.47-4.99 3.69l8.35 15.09v0.29h-5.03zm-16.07-31.69v13.48h7.21q3.49 0 5.55-1.81t2.06-4.83q0-3.3-1.96-5.06-1.97-1.76-5.68-1.78h-7.18zm53.44 12.82v2.24q0 5.23-1.75 9.12-1.76 3.9-4.99 5.95-3.22 2.05-7.51 2.05-4.2 0-7.45-2.06-3.25-2.07-5.04-5.89-1.8-3.82-1.85-8.85v-2.56q0-5.13 1.79-9.06 1.78-3.93 5.04-6.02t7.46-2.09q4.27 0 7.53 2.07 3.26 2.06 5.02 5.98 1.75 3.92 1.75 9.12zm-4.66 2.59v-2.64q0-6.32-2.54-9.71-2.54-3.38-7.1-3.38-4.45 0-7 3.38-2.55 3.39-2.62 9.39v2.61q0 6.13 2.57 9.64 2.58 3.5 7.1 3.5 4.54 0 7.03-3.31t2.56-9.48zm16.4-19.27v31.72h16.85v3.83h-21.56v-35.55h4.71zm42.29 15.29v3.83h-15.41v12.6h17.9v3.83h-22.59v-35.55h22.34v3.86h-17.65v11.43h15.41zm40.3 0.73v3.83h-14.92v15.7h-4.69v-35.55h22.03v3.86h-17.34v12.16h14.92zm13.06-16.02v35.55h-4.69v-35.55h4.69zm35.88 0v35.55h-4.71l-17.89-27.39v27.39h-4.72v-35.55h4.72l17.94 27.52v-27.52h4.66zm31.79 35.55-3.39-9.28h-14.9l-3.34 9.28h-4.84l13.58-35.55h4.1l13.6 35.55h-4.81zm-10.84-29.76-6.03 16.63h12.08l-6.05-16.63zm47.75-5.79v35.55h-4.71l-17.9-27.39v27.39h-4.71v-35.55h4.71l17.95 27.52v-27.52h4.66zm29.76 24.27h4.71q-0.66 5.64-4.16 8.7-3.51 3.07-9.32 3.07-6.3 0-10.09-4.52-3.8-4.51-3.8-12.08v-3.42q0-4.96 1.77-8.72t5.02-5.77q3.25-2.02 7.52-2.02 5.66 0 9.08 3.17 3.42 3.16 3.98 8.75h-4.71q-0.61-4.25-2.65-6.15-2.04-1.91-5.7-1.91-4.49 0-7.04 3.32-2.56 3.32-2.56 9.45v3.44q0 5.79 2.42 9.21t6.76 3.42q3.91 0 6-1.77 2.08-1.77 2.77-6.17zm31.2-8.98v3.83h-15.41v12.6h17.9v3.83h-22.59v-35.55h22.34v3.86h-17.65v11.43h15.41zm13.35-15.29v35.55h-4.69v-35.55h4.69zm29.32 35.55-7.72-14.38h-8.35v14.38h-4.71v-35.55h11.77q6 0 9.24 2.74 3.23 2.73 3.23 7.96 0 3.32-1.79 5.78-1.79 2.47-4.99 3.69l8.35 15.09v0.29h-5.03zm-16.07-31.69v13.48h7.21q3.49 0 5.55-1.81t2.06-4.83q0-3.3-1.96-5.06-1.97-1.76-5.68-1.78h-7.18zm53.44 12.82v2.24q0 5.23-1.75 9.12-1.76 3.9-4.99 5.95-3.22 2.05-7.51 2.05-4.2 0-7.45-2.06-3.25-2.07-5.04-5.89-1.8-3.82-1.85-8.85v-2.56q0-5.13 1.79-9.06 1.78-3.93 5.04-6.02t7.46-2.09q4.27 0 7.53 2.07 3.26 2.06 5.02 5.98 1.75 3.92 1.75 9.12zm-4.66 2.59v-2.64q0-6.32-2.54-9.71-2.54-3.38-7.1-3.38-4.45 0-7 3.38-2.55 3.39-2.62 9.39v2.61q0 6.13 2.57 9.64 2.58 3.5 7.1 3.5 4.54 0 7.03-3.31t2.56-9.48z" fill="#111" data-fill-palette-color="primary"/>
</svg>
</g>
</svg>
</svg>
</svg>
</g>
<g transform="translate(133.55)">
<svg width="130.4" height="73.391" viewBox="0 0 130.39695259207855 73.39135931071621">
<svg class="icon-icon-0" x="8" width="114.4" height="73.391" enable-background="new 0 0 100 100" fill="#096a2e" data-fill-palette-color="accent" version="1.1" viewBox="2.953000068664551 19.816999435424805 94.093994140625 60.365997314453125" xml:space="preserve" xmlns="http://www.w3.org/2000/svg" xmlns:xlink="http://www.w3.org/1999/xlink"><polygon points="34.318 69.084 5.173 54.513 2.953 55.621 34.318 71.304 97.047 39.939 94.827 38.829" data-fill-palette-color="accent"/><polygon points="34.318 73.523 5.173 58.952 2.953 60.061 34.318 75.743 97.047 44.379 94.827 43.269" data-fill-palette-color="accent"/><polygon points="34.318 77.963 5.173 63.392 2.953 64.501 34.318 80.183 97.047 48.818 94.827 47.707" data-fill-palette-color="accent"/><path d="m65.683 19.817-62.73 31.365 31.365 15.682 62.729-31.364-31.364-15.683zm-7.843 27.445c-4.327 2.165-11.349 2.165-15.68 0-4.332-2.166-4.332-5.677 0-7.842 4.329-2.164 11.351-2.164 15.68 0 4.332 2.165 4.332 5.676 0 7.842z" data-fill-palette-color="accent"/></svg>
</svg>
</g>
<g fill="#111">
<rect x="263.95" y="69.997" width="57.017" height="2.3945" data-fill-palette-color="secondary"/>
<rect x="76.533" y="69.997" width="57.017" height="2.3945" data-fill-palette-color="secondary"/>
</g>
</svg>
</svg>
<rect width="395.52" height="114.3" fill="none" visibility="hidden"/>
</g>
</svg>
</g>
</svg>
